<svg xmlns="http://www.w3.org/2000/svg" xmlns:xlink="http://www.w3.org/1999/xlink" viewBox="0 0 266.99 267.21"><defs><style>.cls-1{fill:url(#Névtelen_színátmenet_10);}.cls-2{fill:#312252;}.cls-3{fill:url(#Névtelen_színátmenet_15);}.cls-4{fill:url(#Névtelen_színátmenet_20);}.cls-5{fill:#fff;opacity:0.7;}.cls-6{fill:url(#Névtelen_színátmenet_20-2);}.cls-7{fill:url(#Névtelen_színátmenet_23);}.cls-8{fill:url(#Névtelen_színátmenet_15-2);}.cls-9{fill:none;stroke:#312252;stroke-miterlimit:10;stroke-width:2px;}.cls-10{fill:url(#Névtelen_színátmenet_15-3);}.cls-11{fill:url(#Névtelen_színátmenet_23-2);}</style><linearGradient id="Névtelen_színátmenet_10" x1="66.88" y1="137.84" x2="193.35" y2="137.84" gradientUnits="userSpaceOnUse"><stop offset="0" stop-color="#fff"/><stop offset="1" stop-color="#e6e7e8"/></linearGradient><linearGradient id="Névtelen_színátmenet_15" x1="72.39" y1="86.97" x2="187.84" y2="86.97" gradientUnits="userSpaceOnUse"><stop offset="0" stop-color="#00afaa"/><stop offset="1" stop-color="#00afaa" stop-opacity="0.7"/></linearGradient><linearGradient id="Névtelen_színátmenet_20" x1="112.44" y1="126.97" x2="227.89" y2="126.97" gradientUnits="userSpaceOnUse"><stop offset="0" stop-color="#312252"/><stop offset="1" stop-color="#312252" stop-opacity="0.7"/></linearGradient><linearGradient id="Névtelen_színátmenet_20-2" x1="65.88" y1="34.44" x2="194.35" y2="34.44" xlink:href="#Névtelen_színátmenet_20"/><linearGradient id="Névtelen_színátmenet_23" x1="188.8" y1="27.09" x2="266.99" y2="27.09" gradientUnits="userSpaceOnUse"><stop offset="0" stop-color="#ff914d"/><stop offset="1" stop-color="#ff914d" stop-opacity="0.7"/></linearGradient><linearGradient id="Névtelen_színátmenet_15-2" x1="118.38" y1="107.12" x2="146.07" y2="107.12" xlink:href="#Névtelen_színátmenet_15"/><linearGradient id="Névtelen_színátmenet_15-3" x1="0" y1="227.21" x2="115.45" y2="227.21" xlink:href="#Névtelen_színátmenet_15"/><linearGradient id="Névtelen_színátmenet_23-2" x1="7.15" y1="209.75" x2="108.3" y2="209.75" xlink:href="#Névtelen_színátmenet_23"/></defs><g id="Réteg_2" data-name="Réteg 2"><g id="Réteg_2-2" data-name="Réteg 2"><path class="cls-1" d="M80.65,247.59a13.79,13.79,0,0,1-13.77-13.77V41.8A13.8,13.8,0,0,1,80.65,28.09h98.93A13.79,13.79,0,0,1,193.35,41.8v192a13.79,13.79,0,0,1-13.77,13.77Z"/><path class="cls-2" d="M179.58,29.09A12.78,12.78,0,0,1,192.35,41.8v192a12.79,12.79,0,0,1-12.77,12.77H80.65a12.79,12.79,0,0,1-12.77-12.77v-192A12.8,12.8,0,0,1,80.65,29.09h98.93m0-2H80.65A14.77,14.77,0,0,0,65.88,41.8v192a14.77,14.77,0,0,0,14.77,14.77h98.93a14.77,14.77,0,0,0,14.77-14.77V41.8a14.77,14.77,0,0,0-14.77-14.71Z"/><rect class="cls-3" x="72.39" y="46.97" width="115.45" height="80" rx="10"/><rect class="cls-4" x="112.44" y="86.97" width="115.45" height="80" rx="10"/><rect class="cls-5" x="79.8" y="57.73" width="99.88" height="5" rx="2.5"/><rect class="cls-5" x="79.8" y="65.42" width="99.88" height="5" rx="2.5"/><rect class="cls-5" x="79.8" y="73.11" width="99.88" height="5" rx="2.5"/><rect class="cls-5" x="120.23" y="126.97" width="99.88" height="5" rx="2.5"/><path class="cls-6" d="M179.58,27.09H80.65A14.77,14.77,0,0,0,65.88,41.8H194.35A14.77,14.77,0,0,0,179.58,27.09Zm-49.84,9.8a2.45,2.45,0,1,1,2.45-2.45A2.44,2.44,0,0,1,129.74,36.89Z"/><rect class="cls-7" x="188.8" width="78.19" height="54.18" rx="10"/><rect class="cls-8" x="118.38" y="93.27" width="27.69" height="27.69" rx="5.28"/><rect class="cls-5" x="194.36" y="16.58" width="65.76" height="5" rx="2.5"/><rect class="cls-5" x="194.36" y="24.27" width="65.76" height="5" rx="2.5"/><rect class="cls-5" x="194.36" y="31.96" width="65.76" height="5" rx="2.5"/><line class="cls-9" x1="109.56" y1="241.48" x2="150.68" y2="241.48"/><rect class="cls-10" y="187.21" width="115.45" height="80" rx="10"/><rect class="cls-11" x="7.15" y="195.91" width="101.15" height="27.69" rx="5.28"/></g></g></svg>