<svg xmlns="http://www.w3.org/2000/svg" xmlns:xlink="http://www.w3.org/1999/xlink" viewBox="0 0 225.28 224.32"><defs><style>.cls-1{fill:url(#Névtelen_színátmenet_27);}.cls-2,.cls-4{fill:#312252;}.cls-3{fill:#00afaa;}.cls-4,.cls-7{stroke:#312252;stroke-miterlimit:10;stroke-width:2px;}.cls-5{fill:url(#Névtelen_színátmenet_23);}.cls-6{fill:url(#Névtelen_színátmenet_23-2);}.cls-7{fill:none;}</style><linearGradient id="Névtelen_színátmenet_27" x1="2" y1="130.52" x2="155.45" y2="130.52" gradientUnits="userSpaceOnUse"><stop offset="0" stop-color="#fff"/><stop offset="1" stop-color="#d1d3d4"/></linearGradient><linearGradient id="Névtelen_színátmenet_23" x1="147.3" y1="177.17" x2="214.63" y2="177.17" gradientUnits="userSpaceOnUse"><stop offset="0" stop-color="#ff914d"/><stop offset="1" stop-color="#ff914d" stop-opacity="0.7"/></linearGradient><linearGradient id="Névtelen_színátmenet_23-2" x1="70.37" y1="121.6" x2="160.68" y2="121.6" xlink:href="#Névtelen_színátmenet_23"/></defs><g id="Réteg_2" data-name="Réteg 2"><g id="Réteg_2-2" data-name="Réteg 2"><path class="cls-1" d="M113.15,223.32A111.14,111.14,0,0,1,30.63,37.72L60.26,67.35a69.35,69.35,0,0,0,76.87,109.88L155.45,215A110.07,110.07,0,0,1,113.15,223.32Z" transform="translate(-1)"/><path class="cls-2" d="M30.67,39.17,58.9,67.41a70.35,70.35,0,0,0,77.72,111.06l17.46,36A110.15,110.15,0,0,1,3,112.16a109.82,109.82,0,0,1,27.67-73m-.07-2.9A112.15,112.15,0,0,0,156.81,215.48L137.63,176a68.33,68.33,0,0,1-76-108.67l-31-31Z" transform="translate(-1)"/><path class="cls-3" d="M113.14,0A111.68,111.68,0,0,0,38.21,28.72L69.27,59.77a68.33,68.33,0,0,1,87.42-.26l31.07-31.07A111.65,111.65,0,0,0,113.14,0Z" transform="translate(-1)"/><path class="cls-4" d="M195.4,36l-31,31A68.44,68.44,0,0,1,178,133.61l40.7,16.4A112.22,112.22,0,0,0,195.4,36Z" transform="translate(-1)"/><path class="cls-5" d="M173.87,143.51a68.51,68.51,0,0,1-26.57,27.82l19.17,39.49a112.41,112.41,0,0,0,48.16-50.89Z" transform="translate(-1)"/><path class="cls-6" d="M158.74,110.27l-28-28a6.6,6.6,0,0,0-9.37,0l-9.48,9.48-6.51-6.51a9.32,9.32,0,0,0-13.2,0l-19.4,19.4a8.1,8.1,0,0,0,0,11.45l7.39,7.39-.17.17a6.62,6.62,0,0,0,4.69,11.29A6.54,6.54,0,0,0,89.32,133a6.61,6.61,0,0,0,9.35,9.35,6.61,6.61,0,0,0,9.35,9.35,6.61,6.61,0,1,0,9.35,9.34l15.08-15.07,5.61-5.61,20.68-20.69A6.61,6.61,0,0,0,158.74,110.27Z" transform="translate(-1)"/><path class="cls-7" d="M123.1,127.12,108,142.2a6.62,6.62,0,0,0,4.69,11.29,6.54,6.54,0,0,0,4.66-1.94l15.08-15.08,5.61-5.61,20.68-20.69a6.57,6.57,0,0,0,0-9.34l-28-28a6.6,6.6,0,0,0-9.37,0l-9.48,9.49" transform="translate(-1)"/><path class="cls-7" d="M104.4,108.42,89.32,123.5a6.63,6.63,0,0,1-9.35,0,6.62,6.62,0,0,1,0-9.36L95,99.06l5.61-5.6,13.11,13.1a7.92,7.92,0,0,0,11.2,0h0a7.92,7.92,0,0,0,0-11.21L105,75.41" transform="translate(-1)"/><path class="cls-7" d="M104.4,108.42,89.32,123.5a6.61,6.61,0,0,0,9.35,9.35l15.08-15.08" transform="translate(-1)"/><path class="cls-7" d="M113.75,117.77,98.67,132.85A6.61,6.61,0,0,0,108,142.2l15.08-15.08" transform="translate(-1)"/><path class="cls-7" d="M68.45,112h0a9.67,9.67,0,0,1,0-13.68L91.33,75.41a9.68,9.68,0,0,1,13.69,0h0" transform="translate(-1)"/></g></g></svg>