<svg xmlns="http://www.w3.org/2000/svg" xmlns:xlink="http://www.w3.org/1999/xlink" viewBox="0 0 300 210.07"><defs><style>.cls-1{fill:url(#Névtelen_színátmenet_10);}.cls-2{fill:#312252;}.cls-3{fill:url(#Névtelen_színátmenet_15);}.cls-4{fill:url(#Névtelen_színátmenet_15-2);}.cls-5{fill:url(#Névtelen_színátmenet_15-3);}.cls-6{fill:url(#Névtelen_színátmenet_15-4);}.cls-7{fill:url(#Névtelen_színátmenet_15-5);}.cls-8{fill:url(#Névtelen_színátmenet_15-6);}.cls-9{fill:url(#Névtelen_színátmenet_15-7);}.cls-10{fill:url(#Névtelen_színátmenet_20);}.cls-11{fill:url(#Névtelen_színátmenet_15-8);}.cls-12{fill:url(#Névtelen_színátmenet_15-9);}.cls-13{fill:#fff;}.cls-14{fill:url(#Névtelen_színátmenet_45);}.cls-15{fill:url(#Névtelen_színátmenet_45-2);}.cls-16{fill:url(#Névtelen_színátmenet_45-3);}.cls-17{fill:url(#Névtelen_színátmenet_45-4);}.cls-18{fill:url(#Névtelen_színátmenet_45-5);}.cls-19{fill:url(#Névtelen_színátmenet_45-6);}.cls-20{fill:url(#Névtelen_színátmenet_45-7);}.cls-21{fill:url(#Névtelen_színátmenet_38);}.cls-22{fill:url(#Névtelen_színátmenet_38-2);}.cls-23{fill:url(#Névtelen_színátmenet_38-3);}.cls-24{fill:url(#Névtelen_színátmenet_38-4);}.cls-25{fill:url(#Névtelen_színátmenet_38-5);}.cls-26{fill:url(#Névtelen_színátmenet_38-6);}.cls-27{fill:url(#Névtelen_színátmenet_45-8);}</style><linearGradient id="Névtelen_színátmenet_10" x1="1" y1="106.4" x2="299" y2="106.4" gradientUnits="userSpaceOnUse"><stop offset="0" stop-color="#fff"/><stop offset="1" stop-color="#e6e7e8"/></linearGradient><linearGradient id="Névtelen_színátmenet_15" x1="14.74" y1="64.4" x2="53.84" y2="64.4" gradientUnits="userSpaceOnUse"><stop offset="0" stop-color="#00afaa"/><stop offset="1" stop-color="#00afaa" stop-opacity="0.7"/></linearGradient><linearGradient id="Névtelen_színátmenet_15-2" x1="72.47" y1="64.4" x2="111.57" y2="64.4" xlink:href="#Névtelen_színátmenet_15"/><linearGradient id="Névtelen_színátmenet_15-3" x1="130.2" y1="64.4" x2="169.29" y2="64.4" xlink:href="#Névtelen_színátmenet_15"/><linearGradient id="Névtelen_színátmenet_15-4" x1="187.92" y1="64.4" x2="227.02" y2="64.4" xlink:href="#Névtelen_színátmenet_15"/><linearGradient id="Névtelen_színátmenet_15-5" x1="245.65" y1="64.4" x2="284.74" y2="64.4" xlink:href="#Névtelen_színátmenet_15"/><linearGradient id="Névtelen_színátmenet_15-6" x1="14.74" y1="118.5" x2="53.84" y2="118.5" xlink:href="#Névtelen_színátmenet_15"/><linearGradient id="Névtelen_színátmenet_15-7" x1="72.47" y1="118.5" x2="111.57" y2="118.5" xlink:href="#Névtelen_színátmenet_15"/><linearGradient id="Névtelen_színátmenet_20" x1="130.2" y1="118.5" x2="169.29" y2="118.5" gradientUnits="userSpaceOnUse"><stop offset="0" stop-color="#312252"/><stop offset="1" stop-color="#312252" stop-opacity="0.7"/></linearGradient><linearGradient id="Névtelen_színátmenet_15-8" x1="187.92" y1="118.5" x2="227.02" y2="118.5" xlink:href="#Névtelen_színátmenet_15"/><linearGradient id="Névtelen_színátmenet_15-9" x1="245.65" y1="118.5" x2="284.74" y2="118.5" xlink:href="#Névtelen_színátmenet_15"/><linearGradient id="Névtelen_színátmenet_45" x1="154.5" y1="181.24" x2="154.5" y2="185.33" gradientUnits="userSpaceOnUse"><stop offset="0" stop-color="#00afaa"/><stop offset="1" stop-color="#00a79d"/></linearGradient><linearGradient id="Névtelen_színátmenet_45-2" x1="97.89" y1="187.37" x2="212.32" y2="187.37" xlink:href="#Névtelen_színátmenet_45"/><linearGradient id="Névtelen_színátmenet_45-3" x1="99.42" y1="191.46" x2="213.98" y2="191.46" xlink:href="#Névtelen_színátmenet_45"/><linearGradient id="Névtelen_színátmenet_45-4" x1="139.34" y1="222.64" x2="170.62" y2="168.47" xlink:href="#Névtelen_színátmenet_45"/><linearGradient id="Névtelen_színátmenet_45-5" x1="155.94" y1="197.6" x2="155.94" y2="201.68" xlink:href="#Névtelen_színátmenet_45"/><linearGradient id="Névtelen_színátmenet_45-6" x1="99.42" y1="203.72" x2="212.32" y2="203.72" xlink:href="#Névtelen_színátmenet_45"/><linearGradient id="Névtelen_színátmenet_45-7" x1="95.97" y1="207.81" x2="212.32" y2="207.81" xlink:href="#Névtelen_színátmenet_45"/><linearGradient id="Névtelen_színátmenet_38" x1="212.32" y1="205.88" x2="279.74" y2="205.88" gradientUnits="userSpaceOnUse"><stop offset="0" stop-color="#ff914d"/><stop offset="1" stop-color="#fbb040"/></linearGradient><linearGradient id="Névtelen_színátmenet_38-2" x1="212.32" y1="189.1" x2="279.74" y2="189.1" xlink:href="#Névtelen_színátmenet_38"/><linearGradient id="Névtelen_színátmenet_38-3" x1="280.45" y1="180.72" x2="213.03" y2="180.72" xlink:href="#Névtelen_színátmenet_38"/><linearGradient id="Névtelen_színátmenet_38-4" x1="207.78" y1="164.67" x2="275.2" y2="164.67" gradientTransform="translate(1.16 0.39)" xlink:href="#Névtelen_színátmenet_38"/><linearGradient id="Névtelen_színátmenet_38-5" x1="212.7" y1="133.44" x2="280.12" y2="133.44" gradientTransform="translate(-0.76 0.26)" xlink:href="#Névtelen_színátmenet_38"/><linearGradient id="Névtelen_színátmenet_38-6" x1="213.98" y1="197.49" x2="281.4" y2="197.49" xlink:href="#Névtelen_színátmenet_38"/><linearGradient id="Névtelen_színátmenet_45-8" x1="141.74" y1="197.54" x2="167.08" y2="153.65" xlink:href="#Névtelen_színátmenet_45"/></defs><g id="Réteg_2" data-name="Réteg 2"><g id="Réteg_2-2" data-name="Réteg 2"><rect class="cls-1" x="1" y="20.4" width="298" height="172" rx="19"/><path class="cls-2" d="M280,21.4a18,18,0,0,1,18,18v134a18,18,0,0,1-18,18H20a18,18,0,0,1-18-18V39.4a18,18,0,0,1,18-18H280m0-2H20a20,20,0,0,0-20,20v134a20,20,0,0,0,20,20H280a20,20,0,0,0,20-20V39.4a20,20,0,0,0-20-20Z"/><rect class="cls-3" x="14.74" y="44.86" width="39.1" height="39.1" rx="10"/><rect class="cls-4" x="72.47" y="44.86" width="39.1" height="39.1" rx="10"/><rect class="cls-5" x="130.2" y="44.86" width="39.1" height="39.1" rx="10"/><rect class="cls-6" x="187.92" y="44.86" width="39.1" height="39.1" rx="10"/><rect class="cls-7" x="245.65" y="44.86" width="39.1" height="39.1" rx="10"/><rect class="cls-8" x="14.74" y="98.95" width="39.1" height="39.1" rx="10"/><rect class="cls-9" x="72.47" y="98.95" width="39.1" height="39.1" rx="10"/><rect class="cls-10" x="130.2" y="98.95" width="39.1" height="39.1" rx="10"/><rect class="cls-11" x="187.92" y="98.95" width="39.1" height="39.1" rx="10"/><rect class="cls-12" x="245.65" y="98.95" width="39.1" height="39.1" rx="10"/><rect class="cls-2" x="53.84" width="19.55" height="38.81" rx="9.77"/><rect class="cls-2" x="111.26" width="19.55" height="38.81" rx="9.77"/><rect class="cls-2" x="168.68" width="19.55" height="38.81" rx="9.77"/><rect class="cls-2" x="226.1" width="19.55" height="38.81" rx="9.77"/><path class="cls-13" d="M145.79,128.35l18-18-1.7-1.71-16.29,16.28-8.38-8.38-1.71,1.71Zm0,3.38-13.46-13.47,5.08-5.08,8.38,8.38,16.29-16.29,5.08,5.09Z"/><polygon class="cls-14" points="213.03 181.24 213.03 184.91 212.32 184.91 212.32 185.33 95.97 185.33 95.97 181.24 213.03 181.24"/><rect class="cls-15" x="97.89" y="185.33" width="114.43" height="4.09"/><polygon class="cls-16" points="213.98 193.3 213.98 193.51 99.42 193.51 99.42 189.42 212.32 189.42 212.32 193.3 213.98 193.3"/><rect class="cls-17" x="95.97" y="193.51" width="118.01" height="4.09"/><rect class="cls-18" x="97.89" y="197.6" width="116.09" height="4.08"/><rect class="cls-19" x="99.42" y="201.68" width="112.9" height="4.09"/><rect class="cls-20" x="95.97" y="205.77" width="116.35" height="4.09"/><rect class="cls-21" x="212.32" y="201.68" width="67.42" height="8.39"/><rect class="cls-22" x="212.32" y="184.91" width="67.42" height="8.39"/><rect class="cls-23" x="213.03" y="176.53" width="67.42" height="8.39"/><rect class="cls-24" x="208.94" y="160.86" width="67.42" height="8.39" transform="matrix(0.99, 0.15, -0.15, 0.99, 28.39, -35.48)"/><rect class="cls-25" x="211.94" y="129.51" width="67.42" height="8.39" transform="translate(-23.01 55.99) rotate(-12.43)"/><rect class="cls-26" x="213.98" y="193.3" width="67.42" height="8.39"/><path class="cls-27" d="M212.26,183.73c-97.11,0-116.64-12.74-117.42-13.29l2.26-3.3c.19.13,20.11,12.59,115.16,12.59Z"/></g></g></svg>