<svg xmlns="http://www.w3.org/2000/svg" xmlns:xlink="http://www.w3.org/1999/xlink" viewBox="0 0 302 182.65"><defs><style>.cls-1{stroke:#312252;stroke-miterlimit:10;stroke-width:2px;fill:url(#Névtelen_színátmenet_10);}.cls-2{fill:url(#Névtelen_színátmenet_15);}.cls-3{fill:url(#Névtelen_színátmenet_15-2);}.cls-4{fill:url(#Névtelen_színátmenet_15-3);}.cls-5{fill:url(#Névtelen_színátmenet_15-4);}.cls-6{fill:url(#Névtelen_színátmenet_15-5);}.cls-7{fill:url(#Névtelen_színátmenet_10-2);}.cls-8{fill:url(#Névtelen_színátmenet_10-3);}.cls-9{fill:url(#Névtelen_színátmenet_38);}.cls-10{fill:url(#Névtelen_színátmenet_38-2);}.cls-11{fill:url(#Névtelen_színátmenet_38-3);}.cls-12{fill:url(#Névtelen_színátmenet_38-4);}.cls-13{fill:url(#Névtelen_színátmenet_38-5);}</style><linearGradient id="Névtelen_színátmenet_10" x1="1" y1="91.12" x2="301" y2="91.12" gradientUnits="userSpaceOnUse"><stop offset="0" stop-color="#fff"/><stop offset="1" stop-color="#e6e7e8"/></linearGradient><linearGradient id="Névtelen_színátmenet_15" x1="102.87" y1="89.23" x2="289.74" y2="89.23" gradientUnits="userSpaceOnUse"><stop offset="0" stop-color="#00afaa"/><stop offset="1" stop-color="#00afaa" stop-opacity="0.7"/></linearGradient><linearGradient id="Névtelen_színátmenet_15-2" x1="103.47" y1="109.43" x2="225.34" y2="109.43" xlink:href="#Névtelen_színátmenet_15"/><linearGradient id="Névtelen_színátmenet_15-3" x1="103.47" y1="129.43" x2="225.34" y2="129.43" xlink:href="#Névtelen_színátmenet_15"/><linearGradient id="Névtelen_színátmenet_15-4" x1="103.47" y1="119.43" x2="225.34" y2="119.43" xlink:href="#Névtelen_színátmenet_15"/><linearGradient id="Névtelen_színátmenet_15-5" x1="19.64" y1="54.11" x2="87.05" y2="54.11" xlink:href="#Névtelen_színátmenet_15"/><linearGradient id="Névtelen_színátmenet_10-2" x1="38.02" y1="54.11" x2="68.66" y2="54.11" xlink:href="#Névtelen_színátmenet_10"/><linearGradient id="Névtelen_színátmenet_10-3" x1="30.38" y1="78.62" x2="76.31" y2="78.62" xlink:href="#Névtelen_színátmenet_10"/><linearGradient id="Névtelen_színátmenet_38" x1="102.87" y1="46" x2="127.19" y2="46" gradientUnits="userSpaceOnUse"><stop offset="0" stop-color="#ff914d"/><stop offset="1" stop-color="#fbb040"/></linearGradient><linearGradient id="Névtelen_színátmenet_38-2" x1="130.75" x2="155.07" xlink:href="#Névtelen_színátmenet_38"/><linearGradient id="Névtelen_színátmenet_38-3" x1="158.64" x2="182.95" xlink:href="#Névtelen_színátmenet_38"/><linearGradient id="Névtelen_színátmenet_38-4" x1="186.52" x2="210.83" xlink:href="#Névtelen_színátmenet_38"/><linearGradient id="Névtelen_színátmenet_38-5" x1="214.4" x2="238.72" xlink:href="#Névtelen_színátmenet_38"/></defs><g id="Réteg_2" data-name="Réteg 2"><g id="Réteg_2-2" data-name="Réteg 2"><path class="cls-1" d="M281,1H21A20,20,0,0,0,1,21V130a20,20,0,0,0,20,20H54.17l31.25,31.25L116.66,150H281a20,20,0,0,0,20-20V21A20,20,0,0,0,281,1Z"/><rect class="cls-2" x="102.87" y="81.73" width="186.87" height="15" rx="7.5"/><rect class="cls-3" x="103.47" y="106.93" width="121.87" height="5" rx="2.5"/><rect class="cls-4" x="103.47" y="126.93" width="121.87" height="5" rx="2.5"/><rect class="cls-5" x="103.47" y="116.93" width="121.87" height="5" rx="2.5"/><path class="cls-6" d="M87.05,54.11a33.71,33.71,0,1,1-33.7-33.7A33.62,33.62,0,0,1,87.05,54.11Z"/><circle class="cls-7" cx="53.34" cy="54.11" r="15.32"/><path class="cls-8" d="M76.31,78.78a33.72,33.72,0,0,1-45.93,0,12.61,12.61,0,0,1,3.27-5.68,12.48,12.48,0,0,1,8.86-3.67H64.18A12.56,12.56,0,0,1,76.31,78.78Z"/><path class="cls-9" d="M110.26,53.75,115,50.89l4.77,2.89-1.27-5.41,4.19-3.65-5.53-.48L115,39.13l-2.16,5.08-5.53.48,4.19,3.65Zm-2.74,3.8,2-8.54-6.63-5.75,8.76-.76,3.4-8,3.4,8,8.76.76L120.56,49l2,8.54L115,53Z"/><path class="cls-10" d="M138.14,53.75l4.77-2.86,4.77,2.89-1.27-5.41,4.19-3.65-5.53-.48-2.16-5.11-2.16,5.08-5.53.48,4.2,3.65Zm-2.74,3.8,2-8.54-6.63-5.75,8.76-.76,3.4-8,3.41,8,8.75.76L148.44,49l2,8.54L142.91,53Z"/><path class="cls-11" d="M166,53.75l4.77-2.86,4.78,2.89-1.28-5.41,4.19-3.65L173,44.24l-2.16-5.11-2.15,5.08-5.54.48,4.2,3.65Zm-2.73,3.8,2-8.54-6.62-5.75,8.75-.76,3.4-8,3.41,8,8.75.76L176.33,49l2,8.54L170.79,53Z"/><path class="cls-12" d="M193.9,53.75l4.78-2.86,4.77,2.89-1.28-5.41,4.2-3.65-5.54-.48-2.15-5.11-2.16,5.08-5.53.48,4.19,3.65Zm-2.73,3.8,2-8.54-6.62-5.75,8.75-.76,3.41-8,3.4,8,8.75.76L204.21,49l2,8.54L198.68,53Z"/><path class="cls-13" d="M221.79,53.75l4.77-2.86,4.77,2.89-1.28-5.41,4.2-3.65-5.53-.48-2.16-5.11-2.16,5.08-5.53.48,4.19,3.65Zm-2.74,3.8L221,49l-6.63-5.75,8.75-.76,3.41-8,3.4,8,8.76.76L232.09,49l2,8.54L226.56,53Z"/></g></g></svg>