<svg xmlns="http://www.w3.org/2000/svg" xmlns:xlink="http://www.w3.org/1999/xlink" viewBox="0 0 300 174"><defs><style>.cls-1{opacity:0.1;}.cls-2,.cls-7{fill:#fff;}.cls-3{fill:url(#Névtelen_színátmenet_10);}.cls-4{fill:#312252;}.cls-5{fill:url(#Névtelen_színátmenet_20);}.cls-6{fill:url(#Névtelen_színátmenet_15);}.cls-7{opacity:0.7;}.cls-8{fill:#fff200;}.cls-9{fill:#ed1c24;}.cls-10{fill:#00a651;}.cls-11{fill:url(#Névtelen_színátmenet_15-2);}.cls-12{fill:url(#Névtelen_színátmenet_15-3);}.cls-13{fill:url(#Névtelen_színátmenet_15-4);}</style><linearGradient id="Névtelen_színátmenet_10" x1="1" y1="87" x2="299" y2="87" gradientUnits="userSpaceOnUse"><stop offset="0" stop-color="#fff"/><stop offset="1" stop-color="#e6e7e8"/></linearGradient><linearGradient id="Névtelen_színátmenet_20" y1="10" x2="300" y2="10" gradientUnits="userSpaceOnUse"><stop offset="0" stop-color="#312252"/><stop offset="1" stop-color="#312252" stop-opacity="0.7"/></linearGradient><linearGradient id="Névtelen_színátmenet_15" x1="25" y1="70.06" x2="275" y2="70.06" gradientUnits="userSpaceOnUse"><stop offset="0" stop-color="#00afaa"/><stop offset="1" stop-color="#00afaa" stop-opacity="0.7"/></linearGradient><linearGradient id="Névtelen_színátmenet_15-2" x1="25.38" y1="139.68" x2="64.48" y2="139.68" xlink:href="#Névtelen_színátmenet_15"/><linearGradient id="Névtelen_színátmenet_15-3" x1="130.64" y1="139.68" x2="169.74" y2="139.68" xlink:href="#Névtelen_színátmenet_15"/><linearGradient id="Névtelen_színátmenet_15-4" x1="235.9" y1="139.68" y2="139.68" xlink:href="#Névtelen_színátmenet_15"/></defs><g id="Réteg_2" data-name="Réteg 2"><g id="Réteg_1" data-name="Réteg 1" class="cls-1"><path class="cls-2" d="M139.19,161.68a3.08,3.08,0,0,1-3-3v-38a3.08,3.08,0,0,1,3-3h22a3.08,3.08,0,0,1,3,3v38a3.08,3.08,0,0,1-3,3Zm0-7.5v4.5h22v-4.5Zm11,3.75a1.5,1.5,0,0,0,1.08-.43,1.59,1.59,0,0,0,0-2.15,1.49,1.49,0,0,0-1.08-.42,1.45,1.45,0,0,0-1.07.42,1.56,1.56,0,0,0,0,2.15A1.46,1.46,0,0,0,150.19,157.93Zm-11-6.75h22v-26h-22Zm0-29h22v-1.5h-22Zm0,32v0Zm0-32v0Z"/></g><g id="Réteg_2-2" data-name="Réteg 2"><rect class="cls-3" x="1" y="1" width="298" height="172" rx="19"/><path class="cls-4" d="M280,2a18,18,0,0,1,18,18V154a18,18,0,0,1-18,18H20A18,18,0,0,1,2,154V20A18,18,0,0,1,20,2H280m0-2H20A20,20,0,0,0,0,20V154a20,20,0,0,0,20,20H280a20,20,0,0,0,20-20V20A20,20,0,0,0,280,0Z"/><path class="cls-5" d="M300,20H0A20,20,0,0,1,20,0H280A20,20,0,0,1,300,20Z"/><rect class="cls-6" x="25" y="30.06" width="250" height="80" rx="10"/><rect class="cls-2" x="35" y="39.86" width="230" height="15" rx="7.5"/><rect class="cls-7" x="35.73" y="65.06" width="150" height="5" rx="2.5"/><rect class="cls-7" x="35.73" y="85.06" width="150" height="5" rx="2.5"/><rect class="cls-7" x="35.73" y="75.06" width="150" height="5" rx="2.5"/><circle class="cls-8" cx="25.38" cy="10" r="3.5"/><circle class="cls-9" cx="14.88" cy="10" r="3.5"/><circle class="cls-10" cx="35.88" cy="10" r="3.5"/><rect class="cls-11" x="25.38" y="120.13" width="39.1" height="39.1" rx="10"/><rect class="cls-12" x="130.64" y="120.13" width="39.1" height="39.1" rx="10"/><rect class="cls-13" x="235.9" y="120.13" width="39.1" height="39.1" rx="10"/><path class="cls-2" d="M33.81,146.21v-2.55l4.88-4a11.19,11.19,0,0,0,.84-.76,2.87,2.87,0,0,0,.53-.73,1.79,1.79,0,0,0,.19-.84,1.66,1.66,0,0,0-.21-.86,1.42,1.42,0,0,0-.59-.55,2,2,0,0,0-1.74,0,1.35,1.35,0,0,0-.58.58,2.06,2.06,0,0,0-.2.93H33.55a4.4,4.4,0,0,1,.62-2.37,4.1,4.1,0,0,1,1.75-1.54,6.13,6.13,0,0,1,2.66-.54,6.67,6.67,0,0,1,2.72.51,4,4,0,0,1,1.79,1.41,3.61,3.61,0,0,1,.63,2.12,3.78,3.78,0,0,1-.32,1.5,6.09,6.09,0,0,1-1.12,1.65A22.6,22.6,0,0,1,40,142.28l-1.23,1v.08h5.12v2.83Z"/><path class="cls-2" d="M45,144.17v-2.76l5.27-8.29h2.51v3.69H51.37l-2.83,4.5v.1h7.77v2.76Zm6.37,2v-2.88l.08-1.21v-9H54.8v13.09Z"/><path class="cls-2" d="M252.81,151.18l-.58-3.63a7.32,7.32,0,0,1-1.15-.54,8.16,8.16,0,0,1-1.06-.72l-3.39,1.55L244,143.13l3.11-2.28a2.51,2.51,0,0,1-.07-.59c0-.22,0-.41,0-.58s0-.37,0-.59a2.58,2.58,0,0,1,.07-.59L244,136.23l2.68-4.72,3.39,1.55a8.16,8.16,0,0,1,1.06-.72,5.65,5.65,0,0,1,1.15-.51l.58-3.65h5.29l.57,3.62a9,9,0,0,1,1.17.53,5,5,0,0,1,1.05.73l3.39-1.55,2.67,4.72-3.1,2.21a3.91,3.91,0,0,1,.07.62c0,.22,0,.42,0,.62s0,.39,0,.6a3.79,3.79,0,0,1-.07.6l3.1,2.25-2.67,4.71-3.39-1.55a10.12,10.12,0,0,1-1.05.73,4.83,4.83,0,0,1-1.17.53l-.57,3.63Zm2.64-7.77a3.74,3.74,0,1,0-2.64-1.09A3.6,3.6,0,0,0,255.45,143.41Zm0-1.72a2,2,0,0,1-2-2,2,2,0,0,1,.59-1.43,2,2,0,0,1,1.42-.59,2,2,0,0,1,2,2,1.94,1.94,0,0,1-.58,1.42A2,2,0,0,1,255.45,141.69Zm-1.26,7.76h2.53l.4-3.22a6.65,6.65,0,0,0,1.8-.72,7.27,7.27,0,0,0,1.53-1.18l3.05,1.33,1.15-2.07-2.7-2c.08-.32.14-.65.19-1a7.19,7.19,0,0,0,0-1.93,5.87,5.87,0,0,0-.2-1l2.7-2-1.15-2.07L260.45,135a6.12,6.12,0,0,0-1.49-1.25,4.88,4.88,0,0,0-1.84-.65l-.4-3.22h-2.53l-.41,3.22a5.81,5.81,0,0,0-1.82.69,6.33,6.33,0,0,0-1.51,1.21l-3-1.32-1.15,2.07,2.7,2q-.1.5-.18,1a6.69,6.69,0,0,0,0,1.93c0,.31.11.64.18,1l-2.7,2,1.15,2.07,3-1.33a7.08,7.08,0,0,0,1.54,1.18,6.46,6.46,0,0,0,1.79.72Z"/><path class="cls-2" d="M160.25,151.18a17.87,17.87,0,0,1-7.55-1.79,26.36,26.36,0,0,1-12.22-12.22,17.92,17.92,0,0,1-1.79-7.56,1.4,1.4,0,0,1,1.44-1.43h4.47a1.06,1.06,0,0,1,.77.31,1.86,1.86,0,0,1,.45.8l.86,4a2.46,2.46,0,0,1,0,.82,1.22,1.22,0,0,1-.34.63L143.13,138a27.17,27.17,0,0,0,1.76,2.62,21.1,21.1,0,0,0,2,2.3,23.55,23.55,0,0,0,2.49,2.22,20.08,20.08,0,0,0,2.75,1.77l3-3.13a1.59,1.59,0,0,1,.74-.47,1.78,1.78,0,0,1,.82-.07l3.8.83a1.58,1.58,0,0,1,.8.51,1.3,1.3,0,0,1,.32.87v4.31a1.42,1.42,0,0,1-1.44,1.44Zm-18.08-15,2.59-2.62-.73-3.52h-3.42a14.09,14.09,0,0,0,.43,2.83A22.44,22.44,0,0,0,142.17,136.23ZM154,147.82a15.07,15.07,0,0,0,2.84,1,14.66,14.66,0,0,0,3,.45v-3.42l-3.29-.67Z"/></g></g></svg>